<?xml version="1.0" encoding="UTF-8" standalone="no"?>
<svg
   fill-opacity="0"
   color-rendering="auto"
   color-interpolation="auto"
   text-rendering="auto"
   stroke="rgb(0,0,0)"
   stroke-linecap="square"
   width="733"
   stroke-miterlimit="10"
   shape-rendering="auto"
   stroke-opacity="0"
   fill="rgb(0,0,0)"
   stroke-dasharray="none"
   font-weight="normal"
   stroke-width="1"
   height="424"
   font-family="'Dialog'"
   font-style="normal"
   stroke-linejoin="miter"
   font-size="12px"
   stroke-dashoffset="0"
   image-rendering="auto"
   version="1.1"
   id="svg35328"
   sodipodi:docname="stateDiagram.svg"
   inkscape:version="1.2.1 (9c6d41e410, 2022-07-14)"
   xmlns:inkscape="http://www.inkscape.org/namespaces/inkscape"
   xmlns:sodipodi="http://sodipodi.sourceforge.net/DTD/sodipodi-0.dtd"
   xmlns="http://www.w3.org/2000/svg"
   xmlns:svg="http://www.w3.org/2000/svg">
  <sodipodi:namedview
     id="namedview35330"
     pagecolor="#ffffff"
     bordercolor="#000000"
     borderopacity="0.25"
     inkscape:showpageshadow="2"
     inkscape:pageopacity="0.0"
     inkscape:pagecheckerboard="0"
     inkscape:deskcolor="#d1d1d1"
     showgrid="false"
     inkscape:zoom="2.058663"
     inkscape:cx="449.32074"
     inkscape:cy="253.07687"
     inkscape:window-width="3840"
     inkscape:window-height="2054"
     inkscape:window-x="-11"
     inkscape:window-y="-11"
     inkscape:window-maximized="1"
     inkscape:current-layer="svg35328" />
  <!--Generated by the Batik Graphics2D SVG Generator-->
  <defs
     id="genericDefs">
    <defs
       id="defs1">
      <clipPath
         clipPathUnits="userSpaceOnUse"
         id="clipPath1">
        <path
           d="M-7 -7 L31 -7 L31 31 L-7 31 L-7 -7 Z"
           id="path34887" />
      </clipPath>
      <clipPath
         clipPathUnits="userSpaceOnUse"
         id="clipPath2">
        <path
           d="M-7 -7 L121 -7 L121 73 L-7 73 L-7 -7 Z"
           id="path34890" />
      </clipPath>
      <clipPath
         clipPathUnits="userSpaceOnUse"
         id="clipPath3">
        <path
           d="M-110 -15 L220 -15 L220 30 L-110 30 L-110 -15 Z"
           id="path34893" />
      </clipPath>
      <clipPath
         clipPathUnits="userSpaceOnUse"
         id="clipPath4">
        <path
           d="M0 0 L236 0 L236 104 L0 104 L0 0 Z"
           id="path34896" />
      </clipPath>
      <clipPath
         clipPathUnits="userSpaceOnUse"
         id="clipPath5">
        <path
           d="M146 41 L146 56 L86 56 L86 41 ZM150 71 L150 86 L84 86 L84 71 ZM0 0 L0 104 L236 104 L236 0 Z"
           id="path34899" />
      </clipPath>
      <clipPath
         clipPathUnits="userSpaceOnUse"
         id="clipPath6">
        <path
           d="M0 0 L235 0 L235 104 L0 104 L0 0 Z"
           id="path34902" />
      </clipPath>
      <clipPath
         clipPathUnits="userSpaceOnUse"
         id="clipPath7">
        <path
           d="M145 11 L145 26 L85 26 L85 11 ZM149 41 L149 56 L83 56 L83 41 ZM0 0 L0 104 L235 104 L235 0 Z"
           id="path34905" />
      </clipPath>
      <clipPath
         clipPathUnits="userSpaceOnUse"
         id="clipPath8">
        <path
           d="M0 0 L104 0 L104 223 L0 223 L0 0 Z"
           id="path34908" />
      </clipPath>
      <clipPath
         clipPathUnits="userSpaceOnUse"
         id="clipPath9">
        <path
           d="M0 0 L0 98 L22 98 L22 97 L83 97 L83 112 L23 112 L23 113 L0 113 L0 223 L104 223 L104 0 Z"
           id="path34911" />
      </clipPath>
      <clipPath
         clipPathUnits="userSpaceOnUse"
         id="clipPath10">
        <path
           d="M0 0 L223 0 L223 104 L0 104 L0 0 Z"
           id="path34914" />
      </clipPath>
      <clipPath
         clipPathUnits="userSpaceOnUse"
         id="clipPath11">
        <path
           d="M136 42 L136 57 L81 57 L81 42 ZM136 66 L136 81 L81 81 L81 66 ZM0 0 L0 104 L223 104 L223 0 Z"
           id="path34917" />
      </clipPath>
      <clipPath
         clipPathUnits="userSpaceOnUse"
         id="clipPath12">
        <path
           d="M131 42 L131 57 L84 57 L84 42 ZM134 62 L134 77 L80 77 L80 62 ZM0 0 L0 104 L223 104 L223 0 Z"
           id="path34920" />
      </clipPath>
      <clipPath
         clipPathUnits="userSpaceOnUse"
         id="clipPath13">
        <path
           d="M0 0 L0 223 L104 223 L104 112 L76 112 L76 113 L21 113 L21 98 L75 98 L75 97 L104 97 L104 0 Z"
           id="path34923" />
      </clipPath>
      <clipPath
         clipPathUnits="userSpaceOnUse"
         id="clipPath14">
        <path
           d="M136 17 L136 32 L81 32 L81 17 ZM136 41 L136 56 L81 56 L81 41 ZM0 0 L0 104 L223 104 L223 0 Z"
           id="path34926" />
      </clipPath>
      <clipPath
         clipPathUnits="userSpaceOnUse"
         id="clipPath15">
        <path
           d="M131 22 L131 37 L84 37 L84 22 ZM134 42 L134 57 L80 57 L80 42 ZM0 0 L0 104 L211 104 L211 98 L223 98 L223 0 Z"
           id="path34929" />
      </clipPath>
      <clipPath
         clipPathUnits="userSpaceOnUse"
         id="clipPath16">
        <path
           d="M0 0 L104 0 L104 229 L0 229 L0 0 Z"
           id="path34932" />
      </clipPath>
      <clipPath
         clipPathUnits="userSpaceOnUse"
         id="clipPath17">
        <path
           d="M0 0 L0 123 L85 123 L85 138 L0 138 L0 229 L104 229 L104 93 L59 93 L59 78 L104 78 L104 0 Z"
           id="path34935" />
      </clipPath>
      <clipPath
         clipPathUnits="userSpaceOnUse"
         id="clipPath18">
        <path
           d="M89 78 L89 93 L13 93 L13 78 ZM0 0 L0 123 L39 123 L39 138 L0 138 L0 229 L104 229 L104 0 Z"
           id="path34938" />
      </clipPath>
      <clipPath
         clipPathUnits="userSpaceOnUse"
         id="clipPath19">
        <path
           d="M0 0 L578 0 L578 224 L0 224 L0 0 Z"
           id="path34941" />
      </clipPath>
      <clipPath
         clipPathUnits="userSpaceOnUse"
         id="clipPath20">
        <path
           d="M334 34 L334 49 L239 49 L239 34 ZM205 179 L205 194 L150 194 L150 179 ZM430 179 L430 194 L383 194 L383 179 ZM433 199 L433 214 L379 214 L379 199 ZM205 203 L205 218 L150 218 L150 203 ZM0 0 L0 224 L578 224 L578 0 Z"
           id="path34944" />
      </clipPath>
      <clipPath
         clipPathUnits="userSpaceOnUse"
         id="clipPath21">
        <path
           d="M0 0 L183 0 L183 172 L0 172 L0 0 Z"
           id="path34947" />
      </clipPath>
      <clipPath
         clipPathUnits="userSpaceOnUse"
         id="clipPath22">
        <path
           d="M112 102 L112 117 L66 117 L66 102 ZM0 0 L0 172 L183 172 L183 0 Z"
           id="path34950" />
      </clipPath>
      <clipPath
         clipPathUnits="userSpaceOnUse"
         id="clipPath23">
        <path
           d="M-46 -15 L92 -15 L92 30 L-46 30 L-46 -15 Z"
           id="path34953" />
      </clipPath>
      <clipPath
         clipPathUnits="userSpaceOnUse"
         id="clipPath24">
        <path
           d="M-95 -15 L190 -15 L190 30 L-95 30 L-95 -15 Z"
           id="path34956" />
      </clipPath>
      <clipPath
         clipPathUnits="userSpaceOnUse"
         id="clipPath25">
        <path
           d="M-76 -15 L152 -15 L152 30 L-76 30 L-76 -15 Z"
           id="path34959" />
      </clipPath>
      <clipPath
         clipPathUnits="userSpaceOnUse"
         id="clipPath26">
        <path
           d="M-106 -15 L212 -15 L212 30 L-106 30 L-106 -15 Z"
           id="path34962" />
      </clipPath>
      <clipPath
         clipPathUnits="userSpaceOnUse"
         id="clipPath27">
        <path
           d="M-54 -15 L108 -15 L108 30 L-54 30 L-54 -15 Z"
           id="path34965" />
      </clipPath>
      <clipPath
         clipPathUnits="userSpaceOnUse"
         id="clipPath28">
        <path
           d="M-55 -15 L110 -15 L110 30 L-55 30 L-55 -15 Z"
           id="path34968" />
      </clipPath>
      <clipPath
         clipPathUnits="userSpaceOnUse"
         id="clipPath29">
        <path
           d="M-47 -15 L94 -15 L94 30 L-47 30 L-47 -15 Z"
           id="path34971" />
      </clipPath>
      <clipPath
         clipPathUnits="userSpaceOnUse"
         id="clipPath30">
        <path
           d="M-61 -15 L122 -15 L122 30 L-61 30 L-61 -15 Z"
           id="path34974" />
      </clipPath>
      <clipPath
         clipPathUnits="userSpaceOnUse"
         id="clipPath31">
        <path
           d="M-66 -15 L132 -15 L132 30 L-66 30 L-66 -15 Z"
           id="path34977" />
      </clipPath>
      <clipPath
         clipPathUnits="userSpaceOnUse"
         id="clipPath32">
        <path
           d="M-60 -15 L120 -15 L120 30 L-60 30 L-60 -15 Z"
           id="path34980" />
      </clipPath>
    </defs>
  </defs>
  <g
     fill="#ffffff"
     text-rendering="geometricPrecision"
     fill-opacity="1"
     stroke-opacity="1"
     stroke="#ffffff"
     id="g34986">
    <rect
       x="0"
       width="733"
       height="424"
       y="0"
       stroke="none"
       id="rect34984" />
  </g>
  <g
     font-size="11px"
     transform="translate(2,145)"
     fill-opacity="1"
     fill="#000000"
     text-rendering="geometricPrecision"
     image-rendering="optimizeQuality"
     font-family="sans-serif"
     stroke="#000000"
     stroke-opacity="1"
     id="g34990">
    <circle
       r="9.5"
       clip-path="url(#clipPath1)"
       cx="9.5"
       cy="9.5"
       stroke="none"
       id="circle34988" />
  </g>
  <g
     font-size="11px"
     transform="translate(2,175)"
     fill-opacity="1"
     fill="#000000"
     text-rendering="geometricPrecision"
     image-rendering="optimizeQuality"
     font-family="sans-serif"
     stroke="#000000"
     stroke-opacity="1"
     id="g34996">
    <circle
       r="7"
       clip-path="url(#clipPath1)"
       cx="10"
       cy="10"
       stroke="none"
       id="circle34992" />
    <circle
       stroke-linecap="butt"
       clip-path="url(#clipPath1)"
       fill="none"
       stroke-linejoin="round"
       r="10"
       cx="10"
       cy="10"
       stroke-miterlimit="0"
       id="circle34994" />
  </g>
  <g
     font-size="11px"
     transform="translate(153,139)"
     fill-opacity="1"
     fill="#7acff5"
     text-rendering="geometricPrecision"
     image-rendering="optimizeQuality"
     font-family="sans-serif"
     stroke="#7acff5"
     stroke-opacity="1"
     id="g35000">
    <rect
       x="0"
       y="0"
       clip-path="url(#clipPath2)"
       width="110"
       rx="10"
       ry="10"
       height="62"
       stroke="none"
       id="rect34998" />
  </g>
  <g
     stroke-linecap="butt"
     font-size="11px"
     transform="translate(153,139)"
     fill-opacity="1"
     fill="#000000"
     text-rendering="geometricPrecision"
     image-rendering="optimizeQuality"
     font-family="sans-serif"
     stroke-linejoin="round"
     stroke="#000000"
     stroke-opacity="1"
     stroke-miterlimit="0"
     id="g35004">
    <rect
       x="0"
       y="0"
       clip-path="url(#clipPath2)"
       fill="none"
       width="110"
       rx="10"
       ry="10"
       height="62"
       id="rect35002" />
  </g>
  <g
     font-size="11px"
     transform="translate(383,133)"
     fill-opacity="1"
     fill="#7acff5"
     text-rendering="geometricPrecision"
     image-rendering="optimizeQuality"
     font-family="sans-serif"
     stroke="#7acff5"
     stroke-opacity="1"
     id="g35008">
    <rect
       x="0"
       y="0"
       clip-path="url(#clipPath2)"
       width="110"
       rx="10"
       ry="10"
       height="62"
       stroke="none"
       id="rect35006" />
  </g>
  <g
     stroke-linecap="butt"
     font-size="11px"
     transform="translate(383,133)"
     fill-opacity="1"
     fill="#000000"
     text-rendering="geometricPrecision"
     image-rendering="optimizeQuality"
     font-family="sans-serif"
     stroke-linejoin="round"
     stroke="#000000"
     stroke-opacity="1"
     stroke-miterlimit="0"
     id="g35012">
    <rect
       x="0"
       y="0"
       clip-path="url(#clipPath2)"
       fill="none"
       width="110"
       rx="10"
       ry="10"
       height="62"
       id="rect35010" />
  </g>
  <g
     font-size="11px"
     transform="translate(153,321)"
     fill-opacity="1"
     fill="#7acff5"
     text-rendering="geometricPrecision"
     image-rendering="optimizeQuality"
     font-family="sans-serif"
     stroke="#7acff5"
     stroke-opacity="1"
     id="g35016">
    <rect
       x="0"
       y="0"
       clip-path="url(#clipPath2)"
       width="110"
       rx="10"
       ry="10"
       height="62"
       stroke="none"
       id="rect35014" />
  </g>
  <g
     stroke-linecap="butt"
     font-size="11px"
     transform="translate(153,321)"
     fill-opacity="1"
     fill="#000000"
     text-rendering="geometricPrecision"
     image-rendering="optimizeQuality"
     font-family="sans-serif"
     stroke-linejoin="round"
     stroke="#000000"
     stroke-opacity="1"
     stroke-miterlimit="0"
     id="g35020">
    <rect
       x="0"
       y="0"
       clip-path="url(#clipPath2)"
       fill="none"
       width="110"
       rx="10"
       ry="10"
       height="62"
       id="rect35018" />
  </g>
  <g
     font-size="11px"
     transform="translate(613,133)"
     fill-opacity="1"
     fill="#7acff5"
     text-rendering="geometricPrecision"
     image-rendering="optimizeQuality"
     font-family="sans-serif"
     stroke="#7acff5"
     stroke-opacity="1"
     id="g35024">
    <rect
       x="0"
       y="0"
       clip-path="url(#clipPath2)"
       width="110"
       rx="10"
       ry="10"
       height="62"
       stroke="none"
       id="rect35022" />
  </g>
  <g
     stroke-linecap="butt"
     font-size="11px"
     transform="translate(613,133)"
     fill-opacity="1"
     fill="#000000"
     text-rendering="geometricPrecision"
     image-rendering="optimizeQuality"
     font-family="sans-serif"
     stroke-linejoin="round"
     stroke="#000000"
     stroke-opacity="1"
     stroke-miterlimit="0"
     id="g35028">
    <rect
       x="0"
       y="0"
       clip-path="url(#clipPath2)"
       fill="none"
       width="110"
       rx="10"
       ry="10"
       height="62"
       id="rect35026" />
  </g>
  <g
     font-size="11px"
     transform="translate(614,321)"
     fill-opacity="1"
     fill="#7acff5"
     text-rendering="geometricPrecision"
     image-rendering="optimizeQuality"
     font-family="sans-serif"
     stroke="#7acff5"
     stroke-opacity="1"
     id="g35032">
    <rect
       x="0"
       y="0"
       clip-path="url(#clipPath2)"
       width="110"
       rx="10"
       ry="10"
       height="62"
       stroke="none"
       id="rect35030" />
  </g>
  <g
     stroke-linecap="butt"
     font-size="11px"
     transform="translate(614,321)"
     fill-opacity="1"
     fill="#000000"
     text-rendering="geometricPrecision"
     image-rendering="optimizeQuality"
     font-family="sans-serif"
     stroke-linejoin="round"
     stroke="#000000"
     stroke-opacity="1"
     stroke-miterlimit="0"
     id="g35036">
    <rect
       x="0"
       y="0"
       clip-path="url(#clipPath2)"
       fill="none"
       width="110"
       rx="10"
       ry="10"
       height="62"
       id="rect35034" />
  </g>
  <g
     font-size="11px"
     transform="translate(614,321)"
     fill-opacity="1"
     fill="#000000"
     text-rendering="geometricPrecision"
     image-rendering="optimizeQuality"
     font-family="sans-serif"
     stroke="#000000"
     stroke-opacity="1"
     id="g35040">
    <text
       x="27"
       xml:space="preserve"
       y="12"
       clip-path="url(#clipPath3)"
       stroke="none"
       id="text35038">Game map</text>
  </g>
  <g
     font-size="11px"
     transform="translate(613,133)"
     fill-opacity="1"
     fill="#000000"
     text-rendering="geometricPrecision"
     image-rendering="optimizeQuality"
     font-family="sans-serif"
     stroke="#000000"
     stroke-opacity="1"
     id="g35044">
    <text
       x="29"
       xml:space="preserve"
       y="12"
       clip-path="url(#clipPath3)"
       stroke="none"
       id="text35042">User page</text>
  </g>
  <g
     font-size="11px"
     transform="translate(153,321)"
     fill-opacity="1"
     fill="#000000"
     text-rendering="geometricPrecision"
     image-rendering="optimizeQuality"
     font-family="sans-serif"
     stroke="#000000"
     stroke-opacity="1"
     id="g35048">
    <text
       x="11"
       xml:space="preserve"
       y="12"
       clip-path="url(#clipPath3)"
       stroke="none"
       id="text35046">Registration page</text>
  </g>
  <g
     font-size="11px"
     transform="translate(383,133)"
     fill-opacity="1"
     fill="#000000"
     text-rendering="geometricPrecision"
     image-rendering="optimizeQuality"
     font-family="sans-serif"
     stroke="#000000"
     stroke-opacity="1"
     id="g35052">
    <text
       x="27"
       xml:space="preserve"
       y="12"
       clip-path="url(#clipPath3)"
       stroke="none"
       id="text35050">Login page</text>
  </g>
  <g
     font-size="11px"
     transform="translate(153,139)"
     fill-opacity="1"
     fill="#000000"
     text-rendering="geometricPrecision"
     image-rendering="optimizeQuality"
     font-family="sans-serif"
     stroke="#000000"
     stroke-opacity="1"
     id="g35056">
    <text
       x="28"
       xml:space="preserve"
       y="12"
       clip-path="url(#clipPath3)"
       stroke="none"
       id="text35054">Main page</text>
  </g>
  <g
     stroke-linecap="butt"
     font-size="11px"
     transform="translate(-30,105)"
     fill-opacity="1"
     fill="#000000"
     text-rendering="geometricPrecision"
     image-rendering="optimizeQuality"
     font-family="sans-serif"
     stroke-linejoin="round"
     stroke="#000000"
     stroke-opacity="1"
     id="g35064">
    <line
       y2="50"
       fill="none"
       x1="50"
       clip-path="url(#clipPath5)"
       x2="182"
       y1="50"
       id="line35058" />
    <line
       y2="44"
       fill="none"
       x1="182"
       clip-path="url(#clipPath5)"
       x2="170"
       y1="50"
       id="line35060" />
    <line
       y2="56"
       fill="none"
       x1="182"
       clip-path="url(#clipPath5)"
       x2="170"
       y1="50"
       id="line35062" />
  </g>
  <g
     stroke-linecap="butt"
     font-size="11px"
     transform="translate(-29,135)"
     fill-opacity="1"
     fill="#000000"
     text-rendering="geometricPrecision"
     image-rendering="optimizeQuality"
     font-family="sans-serif"
     stroke-linejoin="round"
     stroke="#000000"
     stroke-opacity="1"
     id="g35072">
    <line
       y2="50"
       fill="none"
       x1="181"
       clip-path="url(#clipPath7)"
       x2="50"
       y1="50"
       id="line35066" />
    <line
       y2="56"
       fill="none"
       x1="50"
       clip-path="url(#clipPath7)"
       x2="62"
       y1="50"
       id="line35068" />
    <line
       y2="44"
       fill="none"
       x1="50"
       clip-path="url(#clipPath7)"
       x2="62"
       y1="50"
       id="line35070" />
  </g>
  <g
     stroke-linecap="butt"
     font-size="11px"
     transform="translate(184,151)"
     fill-opacity="1"
     fill="#000000"
     text-rendering="geometricPrecision"
     image-rendering="optimizeQuality"
     font-family="sans-serif"
     stroke-linejoin="round"
     stroke="#000000"
     stroke-opacity="1"
     id="g35080">
    <line
       y2="169"
       fill="none"
       x1="50"
       clip-path="url(#clipPath9)"
       x2="50"
       y1="50"
       id="line35074" />
    <line
       y2="157"
       fill="none"
       x1="50"
       clip-path="url(#clipPath9)"
       x2="56"
       y1="169"
       id="line35076" />
    <line
       y2="157"
       fill="none"
       x1="50"
       clip-path="url(#clipPath9)"
       x2="44"
       y1="169"
       id="line35078" />
  </g>
  <g
     stroke-linecap="butt"
     font-size="11px"
     transform="translate(213,105)"
     fill-opacity="1"
     fill="#000000"
     text-rendering="geometricPrecision"
     image-rendering="optimizeQuality"
     font-family="sans-serif"
     stroke-linejoin="round"
     stroke="#000000"
     stroke-opacity="1"
     id="g35088">
    <line
       y2="50"
       fill="none"
       x1="50"
       clip-path="url(#clipPath11)"
       x2="169"
       y1="50"
       id="line35082" />
    <line
       y2="44"
       fill="none"
       x1="169"
       clip-path="url(#clipPath11)"
       x2="157"
       y1="50"
       id="line35084" />
    <line
       y2="56"
       fill="none"
       x1="169"
       clip-path="url(#clipPath11)"
       x2="157"
       y1="50"
       id="line35086" />
  </g>
  <g
     stroke-linecap="butt"
     font-size="11px"
     transform="translate(443,105)"
     fill-opacity="1"
     fill="#000000"
     text-rendering="geometricPrecision"
     image-rendering="optimizeQuality"
     font-family="sans-serif"
     stroke-linejoin="round"
     stroke="#000000"
     stroke-opacity="1"
     id="g35096">
    <line
       y2="50"
       fill="none"
       x1="50"
       clip-path="url(#clipPath12)"
       x2="169"
       y1="50"
       id="line35090" />
    <line
       y2="44"
       fill="none"
       x1="169"
       clip-path="url(#clipPath12)"
       x2="157"
       y1="50"
       id="line35092" />
    <line
       y2="56"
       fill="none"
       x1="169"
       clip-path="url(#clipPath12)"
       x2="157"
       y1="50"
       id="line35094" />
  </g>
  <g
     stroke-linecap="butt"
     font-size="11px"
     transform="translate(131,151)"
     fill-opacity="1"
     fill="#000000"
     text-rendering="geometricPrecision"
     image-rendering="optimizeQuality"
     font-family="sans-serif"
     stroke-linejoin="round"
     stroke="#000000"
     stroke-opacity="1"
     id="g35104">
    <line
       y2="50"
       fill="none"
       x1="50"
       clip-path="url(#clipPath13)"
       x2="50"
       y1="169"
       id="line35098" />
    <line
       y2="62"
       fill="none"
       x1="50"
       clip-path="url(#clipPath13)"
       x2="44"
       y1="50"
       id="line35100" />
    <line
       y2="62"
       fill="none"
       x1="50"
       clip-path="url(#clipPath13)"
       x2="56"
       y1="50"
       id="line35102" />
  </g>
  <g
     stroke-linecap="butt"
     font-size="11px"
     transform="translate(213,130)"
     fill-opacity="1"
     fill="#000000"
     text-rendering="geometricPrecision"
     image-rendering="optimizeQuality"
     font-family="sans-serif"
     stroke-linejoin="round"
     stroke="#000000"
     stroke-opacity="1"
     id="g35112">
    <line
       y2="50"
       fill="none"
       x1="169"
       clip-path="url(#clipPath14)"
       x2="50"
       y1="50"
       id="line35106" />
    <line
       y2="56"
       fill="none"
       x1="50"
       clip-path="url(#clipPath14)"
       x2="62"
       y1="50"
       id="line35108" />
    <line
       y2="44"
       fill="none"
       x1="50"
       clip-path="url(#clipPath14)"
       x2="62"
       y1="50"
       id="line35110" />
  </g>
  <g
     stroke-linecap="butt"
     font-size="11px"
     transform="translate(443,125)"
     fill-opacity="1"
     fill="#000000"
     text-rendering="geometricPrecision"
     image-rendering="optimizeQuality"
     font-family="sans-serif"
     stroke-linejoin="round"
     stroke="#000000"
     stroke-opacity="1"
     id="g35120">
    <line
       y2="50"
       fill="none"
       x1="169"
       clip-path="url(#clipPath15)"
       x2="50"
       y1="50"
       id="line35114" />
    <line
       y2="56"
       fill="none"
       x1="50"
       clip-path="url(#clipPath15)"
       x2="62"
       y1="50"
       id="line35116" />
    <line
       y2="44"
       fill="none"
       x1="50"
       clip-path="url(#clipPath15)"
       x2="62"
       y1="50"
       id="line35118" />
  </g>
  <g
     stroke-linecap="butt"
     font-size="11px"
     transform="translate(595,145)"
     fill-opacity="1"
     fill="#000000"
     text-rendering="geometricPrecision"
     image-rendering="optimizeQuality"
     font-family="sans-serif"
     stroke-linejoin="round"
     stroke="#000000"
     stroke-opacity="1"
     id="g35128">
    <line
       y2="50"
       fill="none"
       x1="50"
       clip-path="url(#clipPath17)"
       x2="50"
       y1="175"
       id="line35122" />
    <line
       y2="62"
       fill="none"
       x1="50"
       clip-path="url(#clipPath17)"
       x2="44"
       y1="50"
       id="line35124" />
    <line
       y2="62"
       fill="none"
       x1="50"
       clip-path="url(#clipPath17)"
       x2="56"
       y1="50"
       id="line35126" />
  </g>
  <g
     stroke-linecap="butt"
     font-size="11px"
     transform="translate(641,145)"
     fill-opacity="1"
     fill="#000000"
     text-rendering="geometricPrecision"
     image-rendering="optimizeQuality"
     font-family="sans-serif"
     stroke-linejoin="round"
     stroke="#000000"
     stroke-opacity="1"
     id="g35136">
    <line
       y2="175"
       fill="none"
       x1="50"
       clip-path="url(#clipPath18)"
       x2="50"
       y1="50"
       id="line35130" />
    <line
       y2="163"
       fill="none"
       x1="50"
       clip-path="url(#clipPath18)"
       x2="56"
       y1="175"
       id="line35132" />
    <line
       y2="163"
       fill="none"
       x1="50"
       clip-path="url(#clipPath18)"
       x2="44"
       y1="175"
       id="line35134" />
  </g>
  <g
     stroke-linecap="butt"
     font-size="11px"
     transform="translate(144,-32)"
     fill-opacity="1"
     fill="#000000"
     text-rendering="geometricPrecision"
     image-rendering="optimizeQuality"
     font-family="sans-serif"
     stroke-linejoin="round"
     stroke="#000000"
     stroke-opacity="1"
     id="g35148">
    <line
       y2="50"
       fill="none"
       x1="524"
       clip-path="url(#clipPath20)"
       x2="524"
       y1="164"
       id="line35138" />
    <line
       y2="50"
       fill="none"
       x1="524"
       clip-path="url(#clipPath20)"
       x2="50"
       y1="50"
       id="line35140" />
    <line
       y2="170"
       fill="none"
       x1="50"
       clip-path="url(#clipPath20)"
       x2="50"
       y1="50"
       id="line35142" />
    <line
       y2="158"
       fill="none"
       x1="50"
       clip-path="url(#clipPath20)"
       x2="56"
       y1="170"
       id="line35144" />
    <line
       y2="158"
       fill="none"
       x1="50"
       clip-path="url(#clipPath20)"
       x2="44"
       y1="170"
       id="line35146" />
  </g>
  <g
     stroke-linecap="butt"
     font-size="11px"
     transform="translate(168,302)"
     fill-opacity="1"
     fill="#000000"
     text-rendering="geometricPrecision"
     image-rendering="optimizeQuality"
     font-family="sans-serif"
     stroke-linejoin="round"
     stroke="#000000"
     stroke-opacity="1"
     id="g35162">
    <line
       y2="118"
       fill="none"
       x1="50"
       clip-path="url(#clipPath22)"
       x2="50"
       y1="81"
       id="line35150" />
    <line
       y2="118"
       fill="none"
       x1="50"
       clip-path="url(#clipPath22)"
       x2="129"
       y1="118"
       id="line35152" />
    <line
       y2="50"
       fill="none"
       x1="129"
       clip-path="url(#clipPath22)"
       x2="129"
       y1="118"
       id="line35154" />
    <line
       y2="50"
       fill="none"
       x1="129"
       clip-path="url(#clipPath22)"
       x2="95"
       y1="50"
       id="line35156" />
    <line
       y2="56"
       fill="none"
       x1="95"
       clip-path="url(#clipPath22)"
       x2="107"
       y1="50"
       id="line35158" />
    <line
       y2="44"
       fill="none"
       x1="95"
       clip-path="url(#clipPath22)"
       x2="107"
       y1="50"
       id="line35160" />
  </g>
  <g
     font-size="11px"
     transform="translate(234,404)"
     fill-opacity="1"
     fill="#000000"
     text-rendering="geometricPrecision"
     image-rendering="optimizeQuality"
     font-family="sans-serif"
     stroke="#000000"
     stroke-opacity="1"
     id="g35166">
    <text
       x="9"
       xml:space="preserve"
       y="12"
       clip-path="url(#clipPath23)"
       stroke="none"
       id="text35164">Save</text>
  </g>
  <g
     font-size="11px"
     transform="translate(383,2)"
     fill-opacity="1"
     fill="#000000"
     text-rendering="geometricPrecision"
     image-rendering="optimizeQuality"
     font-family="sans-serif"
     stroke="#000000"
     stroke-opacity="1"
     id="g35170">
    <text
       x="10"
       xml:space="preserve"
       y="12"
       clip-path="url(#clipPath24)"
       stroke="none"
       id="text35168">Delete Account</text>
  </g>
  <g
     font-size="11px"
     transform="translate(654,223)"
     fill-opacity="1"
     fill="#000000"
     text-rendering="geometricPrecision"
     image-rendering="optimizeQuality"
     font-family="sans-serif"
     stroke="#000000"
     stroke-opacity="1"
     id="g35174">
    <text
       x="9"
       xml:space="preserve"
       y="12"
       clip-path="url(#clipPath25)"
       stroke="none"
       id="text35172">New Game</text>
  </g>
  <g
     font-size="11px"
     transform="translate(574,268)"
     fill-opacity="1"
     fill="#000000"
     text-rendering="geometricPrecision"
     image-rendering="optimizeQuality"
     font-family="sans-serif"
     stroke="#000000"
     stroke-opacity="1"
     id="g35178">
    <text
       x="11"
       xml:space="preserve"
       y="12"
       clip-path="url(#clipPath26)"
       stroke="none"
       id="text35176">(unimplemented)</text>
  </g>
  <g
     font-size="11px"
     transform="translate(523,167)"
     fill-opacity="1"
     fill="#000000"
     text-rendering="geometricPrecision"
     image-rendering="optimizeQuality"
     font-family="sans-serif"
     stroke="#000000"
     stroke-opacity="1"
     id="g35182">
    <text
       x="10"
       xml:space="preserve"
       y="12"
       clip-path="url(#clipPath27)"
       stroke="none"
       id="text35180">Logout</text>
  </g>
  <g
     font-size="11px"
     transform="translate(294,171)"
     fill-opacity="1"
     fill="#000000"
     text-rendering="geometricPrecision"
     image-rendering="optimizeQuality"
     font-family="sans-serif"
     stroke="#000000"
     stroke-opacity="1"
     id="g35186">
    <text
       x="9"
       xml:space="preserve"
       y="12"
       clip-path="url(#clipPath28)"
       stroke="none"
       id="text35184">Cancel</text>
  </g>
  <g
     font-size="11px"
     transform="translate(152,249)"
     fill-opacity="1"
     fill="#000000"
     text-rendering="geometricPrecision"
     image-rendering="optimizeQuality"
     font-family="sans-serif"
     stroke="#000000"
     stroke-opacity="1"
     id="g35190">
    <text
       x="9"
       xml:space="preserve"
       y="12"
       clip-path="url(#clipPath28)"
       stroke="none"
       id="text35188">Cancel</text>
  </g>
  <g
     font-size="11px"
     transform="translate(527,147)"
     fill-opacity="1"
     fill="#000000"
     text-rendering="geometricPrecision"
     image-rendering="optimizeQuality"
     font-family="sans-serif"
     stroke="#000000"
     stroke-opacity="1"
     id="g35194">
    <text
       x="9"
       xml:space="preserve"
       y="12"
       clip-path="url(#clipPath29)"
       stroke="none"
       id="text35192">Enter</text>
  </g>
  <g
     font-size="11px"
     transform="translate(294,147)"
     fill-opacity="1"
     fill="#000000"
     text-rendering="geometricPrecision"
     image-rendering="optimizeQuality"
     font-family="sans-serif"
     stroke="#000000"
     stroke-opacity="1"
     id="g35198">
    <text
       x="9"
       xml:space="preserve"
       y="12"
       clip-path="url(#clipPath28)"
       stroke="none"
       id="text35196">Sign-in</text>
  </g>
  <g
     font-size="11px"
     transform="translate(206,248)"
     fill-opacity="1"
     fill="#000000"
     text-rendering="geometricPrecision"
     image-rendering="optimizeQuality"
     font-family="sans-serif"
     stroke="#000000"
     stroke-opacity="1"
     id="g35202">
    <text
       x="10"
       xml:space="preserve"
       y="12"
       clip-path="url(#clipPath30)"
       stroke="none"
       id="text35200">Register</text>
  </g>
  <g
     font-size="11px"
     transform="translate(54,176)"
     fill-opacity="1"
     fill="#000000"
     text-rendering="geometricPrecision"
     image-rendering="optimizeQuality"
     font-family="sans-serif"
     stroke="#000000"
     stroke-opacity="1"
     id="g35206">
    <text
       x="10"
       xml:space="preserve"
       y="12"
       clip-path="url(#clipPath31)"
       stroke="none"
       id="text35204">Exit page</text>
  </g>
  <g
     font-size="11px"
     transform="translate(56,146)"
     fill-opacity="1"
     fill="#000000"
     text-rendering="geometricPrecision"
     image-rendering="optimizeQuality"
     font-family="sans-serif"
     stroke="#000000"
     stroke-opacity="1"
     id="g35210">
    <text
       x="10"
       xml:space="preserve"
       y="12"
       clip-path="url(#clipPath32)"
       stroke="none"
       id="text35208">Load url</text>
  </g>
</svg>
